# xmcd CD database file
#
# Track frame offsets:
#	182
#	24555
#	52757
#	85140
#	118110
#	152165
#	172370
#
# Disc length: 2627 seconds
#
# Revision: 0
# Processed by: cddbd v1.5.2PL0 Copyright (c) Steve Scherf et al.
# Submitted via: CDex 1.70beta2
#
DISCID=540a4107
DTITLE=Pierre Yves Sorin - Parfun de contrebasse
DYEAR=1900
DGENRE=Jazz
TTITLE0=Parfum de contrebasse
TTITLE1=Ornithology
TTITLE2=Le blues de la couette
TTITLE3=Work song
TTITLE4=Les feuilles mortes
TTITLE5=KO Ko
TTITLE6=This one for Ray Brown
EXTD=
EXTT0=
EXTT1=
EXTT2=
EXTT3=
EXTT4=
EXTT5=
EXTT6=
PLAYORDER=
